# xmcd
#
# Track frame offsets: 
#        150
#        20265
#        36946
#        51257
#        71410
#        86843
#        99674
#        114988
#        137622
#        158051
#        171970
#        194194
#        215366
#        230057
#
# Disc length: 3171 seconds
#
# Revision: 0
# Processed by: cddbd v1.5.2PL0 Copyright (c) Steve Scherf et al.
# Submitted via: ExactAudioCopy v1.3
#
DISCID=c60c610e
DTITLE=Eric Lindell - Change In The Weather
DYEAR=2006
DGENRE=Blues Rock, Neo Soul, Rhythm and Blues
TTITLE0=Give It Time
TTITLE1=Two Bit Town
TTITLE2=Feel Like I Do
TTITLE3=All Alone
TTITLE4=Should Have Known
TTITLE5=Casanova
TTITLE6=See Me Through
TTITLE7=Sunny Daze
TTITLE8=It Won't Be Long
TTITLE9=Sad But True
TTITLE10=Let Me Know
TTITLE11=Uncle John
TTITLE12=Lady Jane
TTITLE13=Lazy Days
EXTD=
EXTT0=
EXTT1=
EXTT2=
EXTT3=
EXTT4=
EXTT5=
EXTT6=
EXTT7=
EXTT8=
EXTT9=
EXTT10=
EXTT11=
EXTT12=
EXTT13=
PLAYORDER=
